<svg xmlns="http://www.w3.org/2000/svg" viewBox="0 0 24 24"><path fill="#A78BFA" d="M 5 3 C 3.897 3 3 3.897 3 5 L 6 5 L 6 3 L 5 3 z M 9 3 L 9 5 L 12 5 L 12 3 L 9 3 z M 15 3 L 15 5 L 18 5 C 18 3.9 17.1 3 16 3 L 15 3 z M 3 7 L 3 10 L 5 10 L 5 7 L 3 7 z M 16 7 L 16 9 L 9 9 C 7.9069372 9 7 9.9069372 7 11 L 7 19 C 7 20.093063 7.9069372 21 9 21 L 19 21 C 20.093063 21 21 20.093063 21 19 L 21 11 C 21 9.9069372 20.093063 9 19 9 L 18 9 L 18 7 L 16 7 z M 9 11 L 19 11 L 19 19 L 9 19 L 9 11 z M 3 12 L 3 13 C 3 14.1 3.9 15 5 15 L 5 12 L 3 12 z M 13 12 L 13 17.759766 L 14.332031 16.560547 L 15.060547 18 L 15.908203 17.519531 L 15.302734 16.199219 L 17 16 L 13 12 z"></path></svg>